<?xml version="1.0" standalone="no"?>
<!DOCTYPE svg PUBLIC "-//W3C//DTD SVG 20010904//EN"
 "http://www.w3.org/TR/2001/REC-SVG-20010904/DTD/svg10.dtd">
<svg version="1.0" xmlns="http://www.w3.org/2000/svg"
 width="365.000000pt" height="365.000000pt" viewBox="0 0 365.000000 365.000000"
 preserveAspectRatio="xMidYMid meet">
<metadata>
Created by potrace 1.14, written by Peter Selinger 2001-2017
</metadata>
<g transform="translate(0.000000,365.000000) scale(0.100000,-0.100000)"
fill="#000000" stroke="none">
<path d="M820 3030 c-214 -46 -370 -129 -520 -280 -119 -119 -190 -230 -246
-390 -45 -129 -53 -205 -53 -525 0 -337 7 -411 50 -539 50 -150 130 -278 249
-396 155 -155 342 -253 550 -288 60 -10 1915 -9 1960 1 182 40 308 96 438 195
204 154 347 390 390 643 4 24 7 199 7 389 0 382 -3 408 -71 576 -130 324 -410
550 -764 619 -62 12 -231 14 -990 14 -846 -1 -921 -2 -1000 -19z m1978 -46
c208 -37 390 -135 535 -288 112 -118 189 -256 238 -431 21 -75 23 -102 25
-415 2 -359 -3 -415 -55 -564 -90 -258 -312 -478 -578 -575 -165 -61 -149 -60
-1168 -58 -914 3 -931 3 -1005 24 -336 95 -568 303 -680 611 -53 146 -60 212
-56 572 2 293 5 332 24 402 76 277 242 491 482 621 79 44 225 93 300 102 30 4
57 9 59 11 2 2 407 4 900 3 742 0 910 -3 979 -15z"/>
<path d="M960 2400 c-63 -80 -219 -276 -347 -436 -128 -161 -233 -295 -233
-298 0 -3 62 -6 138 -6 l137 1 150 191 c83 105 155 196 160 202 6 6 32 39 59
74 27 34 50 62 52 62 1 0 71 -87 155 -192 85 -106 159 -200 166 -208 6 -8 33
-41 59 -72 l46 -58 140 0 140 0 -47 58 c-25 31 -161 203 -303 381 -141 178
-279 351 -307 385 l-50 61 -115 -145z"/>
<path d="M2300 2539 c-216 -19 -390 -95 -511 -223 -72 -76 -102 -200 -72 -300
30 -101 123 -199 248 -260 176 -87 235 -95 718 -96 l397 0 0 80 0 80 -377 0
c-416 0 -469 6 -578 59 -132 65 -201 181 -164 278 31 84 102 146 216 189 92
35 138 38 546 38 l358 1 -3 80 -3 80 -350 0 c-192 0 -384 -3 -425 -6z"/>
<path d="M542 1353 l3 -128 81 1 c44 1 91 7 103 13 58 32 80 134 39 186 -30
39 -77 55 -158 55 l-71 0 3 -127z m150 72 c39 -8 63 -56 49 -97 -16 -44 -39
-57 -101 -58 l-56 0 1 78 c0 74 1 77 25 82 25 6 34 6 82 -5z"/>
<path d="M873 1470 c-33 -13 -43 -42 -43 -123 0 -113 9 -120 144 -122 105 -2
106 -1 106 22 0 23 -2 23 -100 23 -59 0 -100 4 -101 10 -6 57 -9 55 79 58 74
3 82 5 82 22 0 12 -7 21 -17 21 -10 1 -43 3 -73 4 -80 3 -79 3 -73 25 5 17 14
20 67 21 33 1 78 0 99 -1 34 -1 37 1 37 24 l0 26 -92 -1 c-51 0 -103 -4 -115
-9z"/>
<path d="M1161 1363 c33 -65 64 -121 68 -125 3 -4 35 49 69 117 61 123 62 125
37 125 -21 0 -31 -12 -64 -77 l-38 -77 -24 44 c-12 25 -30 59 -38 75 -11 20
-25 31 -44 33 l-27 3 61 -118z"/>
<path d="M1390 1460 c-21 -16 -24 -26 -25 -96 -3 -129 10 -141 160 -140 85 1
90 2 93 23 3 22 0 22 -100 25 l-103 3 -3 33 -3 32 84 0 c83 0 84 0 80 23 -4
22 -9 23 -80 22 -55 -1 -77 3 -80 13 -10 25 13 33 110 35 94 1 97 2 97 25 0
22 -2 23 -103 21 -82 -1 -108 -5 -127 -19z"/>
<path d="M1654 1465 c-3 -8 -4 -55 -3 -105 5 -121 17 -133 126 -134 74 -1 78
0 81 22 3 21 0 22 -65 22 -37 0 -74 4 -81 9 -9 5 -13 37 -14 104 -1 87 -3 97
-20 97 -10 0 -21 -7 -24 -15z"/>
<path d="M1953 1473 c-35 -7 -80 -58 -87 -98 -5 -27 -2 -48 14 -80 57 -117
233 -76 233 55 0 82 -77 141 -160 123z m92 -68 c33 -32 33 -75 -1 -109 -34
-34 -77 -34 -109 -1 -31 30 -32 73 -4 109 28 35 80 36 114 1z"/>
<path d="M2140 1353 c0 -122 1 -129 20 -130 11 -1 21 2 21 8 1 5 3 27 4 49 1
22 3 45 4 50 0 6 32 10 70 10 63 0 71 2 90 26 26 33 26 55 2 85 -17 22 -29 24
-115 27 l-96 4 0 -129z m180 58 c0 -22 -18 -28 -85 -26 -37 0 -50 4 -51 15 -1
27 7 30 72 30 56 0 64 -2 64 -19z"/>
<path d="M2443 1470 c-35 -14 -44 -43 -39 -132 2 -46 5 -84 5 -85 1 -1 11 -8
24 -14 26 -15 216 -21 219 -8 5 33 1 34 -97 39 l-100 5 -3 33 -3 32 80 0 c78
0 81 1 81 23 0 22 -3 23 -77 22 -73 0 -78 1 -81 23 -2 16 2 22 15 23 10 0 56
1 103 2 78 2 85 4 85 22 0 18 -7 20 -95 22 -52 1 -105 -2 -117 -7z"/>
<path d="M2690 1352 c0 -128 0 -129 22 -128 20 1 23 7 24 46 2 69 2 70 32 70
33 0 51 -17 80 -75 13 -27 27 -41 41 -42 27 -2 26 11 -3 67 l-24 44 30 28 c25
23 29 33 23 56 -12 49 -28 57 -130 60 l-95 4 0 -130z m168 79 c8 -1 12 -10 10
-23 -3 -21 -8 -23 -68 -23 -58 0 -65 2 -65 20 0 21 33 32 85 28 14 -1 31 -2
38 -2z"/>
</g>
</svg>
